<?xml version="1.0" encoding="UTF-8" standalone="no"?>
<!DOCTYPE svg PUBLIC "-//W3C//DTD SVG 1.1//EN" "http://www.w3.org/Graphics/SVG/1.1/DTD/svg11.dtd">
<svg xmlns="http://www.w3.org/2000/svg" version="1.1" viewBox="0.00 0.00 1216.00 1136.00">
<path fill="#111111" d="
  M 1131.88 593.87
  L 1131.01 1050.23
  A 0.79 0.78 -0.4 0 1 1130.23 1051.01
  C 965.87 1051.26 801.42 1052.11 636.94 1051.94
  Q 343.13 1051.66 49.37 1050.94
  A 0.32 0.31 90.0 0 1 49.06 1050.62
  C 48.30 801.00 47.58 551.30 48.50 301.69
  Q 48.59 277.32 48.59 252.94
  Q 48.60 190.12 49.07 36.72
  Q 49.07 36.03 49.76 36.03
  L 465.66 35.20
  Q 564.58 35.01 663.51 35.15
  Q 897.08 35.48 1130.66 36.05
  A 0.30 0.29 -90.0 0 1 1130.95 36.35
  Q 1131.62 314.64 1132.05 593.00
  Q 1132.05 593.14 1131.98 593.32
  Q 1131.88 593.59 1131.88 593.87
  Z
  M 1090.92 1010.47
  C 1092.78 699.70 1092.40 388.80 1090.93 77.45
  Q 1090.93 76.00 1089.47 75.99
  Q 590.52 73.98 91.57 76.00
  A 0.56 0.56 0.0 0 0 91.01 76.56
  C 89.45 387.84 89.65 699.15 91.00 1010.44
  Q 91.00 1010.96 91.52 1010.96
  C 386.39 1012.55 681.32 1012.39 976.19 1011.48
  Q 1033.30 1011.31 1090.42 1010.97
  Q 1090.92 1010.97 1090.92 1010.47
  Z"
/>
<path fill="#111111" d="
  M 664.90 189.98
  C 721.10 201.10 778.87 229.04 812.94 276.11
  C 843.90 318.89 864.77 373.24 853.37 426.53
  C 846.85 457.02 829.38 485.67 806.86 507.95
  C 792.96 521.71 776.18 533.28 758.51 541.69
  C 728.01 556.20 694.70 558.16 664.00 542.96
  Q 647.14 534.61 633.01 522.23
  C 627.78 517.65 622.37 513.76 617.84 508.34
  C 613.61 503.28 608.58 498.11 604.80 493.48
  Q 584.78 468.98 567.75 442.27
  C 543.60 404.37 527.69 378.72 500.18 349.81
  C 494.78 344.14 485.28 336.44 479.39 331.63
  C 453.33 310.38 422.23 296.42 388.99 295.12
  Q 387.64 295.07 383.94 294.03
  C 382.28 293.57 380.00 294.91 378.22 294.98
  C 354.72 295.94 333.77 302.73 312.94 313.27
  A 0.60 0.60 0.0 0 1 312.21 312.34
  C 321.76 301.06 331.66 289.81 342.47 279.84
  C 371.00 253.52 404.10 228.56 440.54 215.24
  Q 448.64 212.28 454.59 209.51
  Q 466.17 204.13 470.50 202.74
  Q 512.41 189.27 556.16 184.93
  C 565.67 183.98 577.59 183.51 588.30 182.72
  C 599.49 181.89 611.03 183.51 622.25 184.02
  Q 638.56 184.76 664.90 189.98
  Z"
/>
<path fill="#111111" d="
  M 600.46 848.29
  Q 569.78 818.35 554.89 778.07
  Q 547.70 758.60 546.28 743.74
  C 545.59 736.50 543.91 728.66 544.76 721.43
  C 546.03 710.74 546.72 700.79 550.43 689.81
  C 560.26 660.64 581.46 640.74 607.93 626.42
  C 633.86 612.39 662.32 603.40 691.26 596.02
  C 728.02 586.65 753.90 580.98 785.82 570.84
  Q 804.66 564.86 826.30 552.79
  Q 851.78 538.58 870.55 521.10
  C 871.03 520.65 872.10 520.29 872.42 519.92
  C 878.46 512.84 885.19 505.38 890.01 498.24
  C 904.60 476.62 910.50 454.20 911.39 428.27
  Q 911.93 412.68 912.05 397.17
  A 0.39 0.39 0.0 0 1 912.78 396.97
  C 941.08 445.16 958.42 499.00 961.62 554.95
  Q 962.01 561.89 962.44 568.82
  C 963.22 581.59 962.00 595.92 960.98 607.50
  C 949.81 733.97 876.82 870.85 736.00 886.72
  Q 727.22 887.70 713.66 888.50
  C 707.06 888.88 700.62 888.20 694.02 887.72
  C 659.95 885.23 625.21 872.44 600.46 848.29
  Z"
/>
<path fill="#111111" d="
  M 342.46 815.54
  C 329.27 803.96 319.00 794.37 305.54 778.94
  C 267.18 734.97 237.20 679.66 230.27 621.00
  C 228.97 610.00 228.06 598.94 228.65 587.98
  C 230.16 559.78 236.28 532.53 248.63 507.09
  C 274.35 454.09 314.01 415.62 374.61 408.63
  C 379.08 408.12 387.79 407.83 394.39 407.05
  Q 398.17 406.61 402.14 406.96
  Q 408.00 407.47 418.75 408.00
  Q 429.73 408.53 446.03 412.17
  Q 470.98 417.73 491.77 432.35
  C 495.14 434.72 498.53 437.96 501.95 440.72
  C 506.17 444.13 508.67 447.91 511.93 452.04
  C 525.20 468.88 533.13 491.64 534.74 512.01
  C 535.42 520.65 537.07 529.74 536.27 538.39
  Q 535.75 543.96 534.97 554.25
  C 532.01 593.46 518.37 633.87 507.19 672.33
  C 500.01 697.02 496.75 723.36 495.36 748.98
  C 494.73 760.76 495.96 772.29 497.33 784.00
  C 504.03 841.23 538.30 882.73 591.01 904.20
  A 0.40 0.40 0.0 0 1 590.88 904.97
  C 588.16 905.05 586.07 906.14 583.43 905.96
  C 571.57 905.16 558.48 905.28 547.86 904.27
  Q 430.87 893.11 342.46 815.54
  Z"
/>
</svg>
