<?xml version="1.0" encoding="UTF-8"?>
<!DOCTYPE svg PUBLIC "-//W3C//DTD SVG 1.1//EN" "http://www.w3.org/Graphics/SVG/1.1/DTD/svg11.dtd">
<!-- Creator: CorelDRAW X7 -->
<svg xmlns="http://www.w3.org/2000/svg" xml:space="preserve" width="85.9807mm" height="85.9807mm" version="1.1" style="shape-rendering:geometricPrecision; text-rendering:geometricPrecision; image-rendering:optimizeQuality; fill-rule:evenodd; clip-rule:evenodd"
viewBox="0 0 16554 16554"
 xmlns:xlink="http://www.w3.org/1999/xlink">
 <defs>
  <style type="text/css">
   <![CDATA[
    .fil1 {fill:#FEFEFE}
    .fil0 {fill:greenyellow}
    .fil2 {fill:#FEFEFE;fill-rule:nonzero}
   ]]>
  </style>
 </defs>
 <g id="Layer_x0020_1">
  <metadata id="CorelCorpID_0Corel-Layer"/>
  <path class="fil0" d="M13678 8746l-3306 0c-203,606 -488,1103 -853,1494 -474,508 -975,763 -1496,763l-823 0 517 -2247 2 0 -2 0 2 -10 -124 0c-677,-57 -1214,-181 -1635,-412l56 -5208 -970 0 -1312 5634 821 -1 -1057 4603 4173 0c1470,0 2777,-481 3918,-1442 998,-840 1693,-1898 2089,-3174z"/>
  <path class="fil1" d="M5046 3117l3975 0c1729,0 2904,511 3527,1536 622,1026 779,2210 470,3557 -45,196 -97,388 -155,575l-3306 0c62,-185 116,-379 163,-583 173,-750 162,-1398 -31,-1943 -194,-542 -594,-814 -1195,-814l-823 0 -742 3232c-2520,-204 -2337,-3585 -1883,-5560z"/>
  <path class="fil2" d="M1155 15398l14243 0 0 -14243 -14243 0 0 14243zm14821 1156l-15398 0 -578 0 0 -578 0 -15398 0 -578 578 0 15398 0 578 0 0 578 0 15398 0 578 -578 0z"/>
 </g>
</svg>
